<svg width="24" height="24" viewBox="0 0 24 24" fill="none" xmlns="http://www.w3.org/2000/svg">
    <path d="M13 22.75H5C2.58 22.75 1.25 21.42 1.25 19V11C1.25 8.58 2.58 7.25 5 7.25H10C10.41 7.25 10.75 7.59 10.75 8V19C10.75 20.58 11.42 21.25 13 21.25C13.41 21.25 13.75 21.59 13.75 22C13.75 22.41 13.41 22.75 13 22.75ZM5 8.75C3.42 8.75 2.75 9.42 2.75 11V19C2.75 20.58 3.42 21.25 5 21.25H9.79999C9.43999 20.66 9.25 19.91 9.25 19V8.75H5Z" fill="#7C838B"/>
    <path d="M5.25 7.25V7.75H5.75H9.25H9.75V7.25V5V4.99947V4.99895V4.99842V4.99789V4.99737V4.99684V4.99631V4.99579V4.99526V4.99474V4.99421V4.99369V4.99316V4.99264V4.99212V4.99159V4.99107V4.99054V4.99002V4.9895V4.98898V4.98845V4.98793V4.98741V4.98689V4.98637V4.98584V4.98532V4.9848V4.98428V4.98376V4.98324V4.98272V4.9822V4.98168V4.98116V4.98064V4.98012V4.9796V4.97908V4.97857V4.97805V4.97753V4.97701V4.97649V4.97598V4.97546V4.97494V4.97443V4.97391V4.97339V4.97288V4.97236V4.97185V4.97133V4.97081V4.9703V4.96978V4.96927V4.96876V4.96824V4.96773V4.96721V4.9667V4.96619V4.96567V4.96516V4.96465V4.96413V4.96362V4.96311V4.9626V4.96208V4.96157V4.96106V4.96055V4.96004V4.95953V4.95902V4.95851V4.958V4.95749V4.95698V4.95647V4.95596V4.95545V4.95494V4.95443V4.95392V4.95341V4.9529V4.95239V4.95189V4.95138V4.95087V4.95036V4.94986V4.94935V4.94884V4.94834V4.94783V4.94732V4.94682V4.94631V4.9458V4.9453V4.94479V4.94429V4.94378V4.94328V4.94277V4.94227V4.94176V4.94126V4.94076V4.94025V4.93975V4.93924V4.93874V4.93824V4.93773V4.93723V4.93673V4.93623V4.93572V4.93522V4.93472V4.93422V4.93372V4.93322V4.93271V4.93221V4.93171V4.93121V4.93071V4.93021V4.92971V4.92921V4.92871V4.92821V4.92771V4.92721V4.92671V4.92621V4.92571V4.92522V4.92472V4.92422V4.92372V4.92322V4.92272V4.92223V4.92173V4.92123V4.92073V4.92024V4.91974V4.91924V4.91875V4.91825V4.91775V4.91726V4.91676V4.91627V4.91577V4.91527V4.91478V4.91428V4.91379V4.91329V4.9128V4.9123V4.91181V4.91131V4.91082V4.91033V4.90983V4.90934V4.90884V4.90835V4.90786V4.90736V4.90687V4.90638V4.90589V4.90539V4.9049V4.90441V4.90392V4.90342V4.90293V4.90244V4.90195V4.90146V4.90097V4.90048V4.89998V4.89949V4.899V4.89851V4.89802V4.89753V4.89704V4.89655V4.89606V4.89557V4.89508V4.89459V4.8941V4.89361V4.89313V4.89264V4.89215V4.89166V4.89117V4.89068V4.89019V4.88971V4.88922V4.88873V4.88824V4.88775V4.88727V4.88678V4.88629V4.88581V4.88532V4.88483V4.88434V4.88386V4.88337V4.88289V4.8824V4.88191V4.88143V4.88094V4.88046V4.87997V4.87948V4.879V4.87851V4.87803V4.87754V4.87706V4.87657V4.87609V4.87561V4.87512V4.87464V4.87415V4.87367V4.87318V4.8727V4.87222V4.87173V4.87125V4.87077V4.87028V4.8698V4.86932V4.86883V4.86835V4.86787V4.86739V4.8669V4.86642V4.86594V4.86546V4.86498V4.86449V4.86401V4.86353V4.86305V4.86257V4.86209V4.8616V4.86112V4.86064V4.86016V4.85968V4.8592V4.85872V4.85824V4.85776V4.85728V4.8568V4.85632V4.85584V4.85536V4.85488V4.8544V4.85392V4.85344V4.85296V4.85248V4.852V4.85152V4.85104V4.85056V4.85008V4.84961V4.84913V4.84865V4.84817V4.84769V4.84721V4.84674V4.84626V4.84578V4.8453V4.84482V4.84435V4.84387V4.84339V4.84291V4.84244V4.84196V4.84148V4.841V4.84053V4.84005V4.83957V4.8391V4.83862V4.83814V4.83767V4.83719V4.83671V4.83624V4.83576V4.83529V4.83481V4.83433V4.83386V4.83338V4.83291V4.83243V4.83195V4.83148V4.831V4.83053V4.83005V4.82958V4.8291V4.82863V4.82815V4.82768V4.8272V4.82673V4.82625V4.82578V4.82531V4.82483V4.82436V4.82388V4.82341V4.82293V4.82246V4.82199V4.82151V4.82104V4.82056V4.82009V4.81962V4.81914V4.81867V4.8182V4.81772V4.81725V4.81678V4.8163V4.81583V4.81536V4.81488V4.81441V4.81394V4.81346V4.81299V4.81252V4.81205V4.81157V4.8111V4.81063V4.81016V4.80968V4.80921V4.80874V4.80827V4.80779V4.80732V4.80685V4.80638V4.80591V4.80543V4.80496V4.80449V4.80402V4.80355V4.80308V4.8026V4.80213V4.80166V4.80119V4.80072V4.80025V4.79978V4.7993V4.79883V4.79836V4.79789V4.79742V4.79695V4.79648V4.79601V4.79554V4.79507V4.7946V4.79412V4.79365V4.79318V4.79271V4.79224V4.79177V4.7913V4.79083V4.79036V4.78989V4.78942V4.78895V4.78848V4.78801V4.78754V4.78707V4.7866V4.78613V4.78566V4.78519V4.78472V4.78425V4.78378V4.78331V4.78284V4.78237V4.7819V4.78143V4.78096V4.78049V4.78002V4.77955V4.77908V4.77861V4.77814V4.77767V4.7772V4.77673V4.77626V4.77579V4.77532V4.77485V4.77439V4.77392V4.77345V4.77298V4.77251V4.77204V4.77157V4.7711V4.77063V4.77016V4.76969V4.76922V4.76875V4.76829V4.76782V4.76735V4.76688V4.76641V4.76594V4.76547V4.765V4.76453V4.76406V4.7636V4.76313V4.76266V4.76219V4.76172V4.76125V4.76078V4.76031V4.75984V4.75938V4.75891V4.75844V4.75797V4.7575V4.75703V4.75656V4.75609V4.75563V4.75516V4.75469V4.75422V4.75375V4.75328V4.75281V4.75234V4.75188V4.75141V4.75094V4.75047V4.75V4.25H9.25H7C6.03386 4.25 5.25 5.03386 5.25 6V7.25ZM10 8.25H5C4.86614 8.25 4.75 8.13386 4.75 8V6C4.75 4.75614 5.75614 3.75 7 3.75H10.11C10.181 3.75 10.2543 3.7846 10.3015 3.84212C10.3541 3.91675 10.3641 3.99799 10.3476 4.05844C10.27 4.34298 10.25 4.64568 10.25 5V8C10.25 8.13386 10.1339 8.25 10 8.25Z" fill="#7C838B" stroke="#7C838B"/>
    <path d="M14 13.75C13.59 13.75 13.25 13.41 13.25 13V8C13.25 7.59 13.59 7.25 14 7.25C14.41 7.25 14.75 7.59 14.75 8V13C14.75 13.41 14.41 13.75 14 13.75Z" fill="#7C838B"/>
    <path d="M18 13.75C17.59 13.75 17.25 13.41 17.25 13V8C17.25 7.59 17.59 7.25 18 7.25C18.41 7.25 18.75 7.59 18.75 8V13C18.75 13.41 18.41 13.75 18 13.75Z" fill="#7C838B"/>
    <path d="M18 22.75H14C13.59 22.75 13.25 22.41 13.25 22V18C13.25 17.04 14.04 16.25 15 16.25H17C17.96 16.25 18.75 17.04 18.75 18V22C18.75 22.41 18.41 22.75 18 22.75ZM14.75 21.25H17.25V18C17.25 17.86 17.14 17.75 17 17.75H15C14.86 17.75 14.75 17.86 14.75 18V21.25Z" fill="#7C838B"/>
    <path d="M6 17.75C5.59 17.75 5.25 17.41 5.25 17V13C5.25 12.59 5.59 12.25 6 12.25C6.41 12.25 6.75 12.59 6.75 13V17C6.75 17.41 6.41 17.75 6 17.75Z" fill="#7C838B"/>
    <path d="M19 22.75H13C10.58 22.75 9.25 21.42 9.25 19V5C9.25 2.58 10.58 1.25 13 1.25H19C21.42 1.25 22.75 2.58 22.75 5V19C22.75 21.42 21.42 22.75 19 22.75ZM13 2.75C11.42 2.75 10.75 3.42 10.75 5V19C10.75 20.58 11.42 21.25 13 21.25H19C20.58 21.25 21.25 20.58 21.25 19V5C21.25 3.42 20.58 2.75 19 2.75H13Z" fill="#7C838B"/>
    </svg>
    