<svg width="24" height="24" viewBox="0 0 24 24" fill="none" xmlns="http://www.w3.org/2000/svg">
    <path d="M16.3799 22.75H3.23993C2.28993 22.75 1.40993 22.31 0.839932 21.54C0.259932 20.76 0.0899403 19.78 0.37994 18.85L4.58993 5.31995C4.96993 4.05995 6.12995 3.19995 7.44995 3.19995H19.7499C20.9599 3.19995 22.0499 3.92004 22.5099 5.04004C22.7599 5.62004 22.8099 6.28005 22.6599 6.93005L19.2899 20.46C18.9699 21.81 17.7699 22.75 16.3799 22.75ZM7.45993 4.70996C6.80993 4.70996 6.21993 5.14002 6.02993 5.77002L1.81994 19.3C1.67994 19.77 1.75993 20.26 2.05993 20.66C2.33993 21.04 2.77994 21.26 3.24994 21.26H16.3899C17.08 21.26 17.6799 20.79 17.8399 20.12L21.2099 6.57996C21.2899 6.24996 21.2699 5.92 21.1399 5.63C20.9 5.06 20.3699 4.69995 19.7599 4.69995H7.45993V4.70996Z" fill="#7C838B"/>
    <path d="M21.7487 6.01377L21.7487 6.01353C21.7389 5.88002 21.8398 5.7619 21.9707 5.74913C22.1232 5.74481 22.2323 5.85523 22.2413 5.97616C22.2413 5.97624 22.2413 5.97632 22.2413 5.9764L23.2313 19.5963L23.2313 19.5965C23.2812 20.2773 23.0396 20.9605 22.5745 21.4589L22.5744 21.4588L22.5687 21.4652C22.1165 21.9666 21.4631 22.25 20.78 22.25H16C15.8661 22.25 15.75 22.1338 15.75 22C15.75 21.8661 15.8661 21.75 16 21.75H20.78C21.3327 21.75 21.8438 21.5194 22.2155 21.1212C22.5912 20.7186 22.7787 20.1816 22.7387 19.6338C22.7387 19.6337 22.7387 19.6336 22.7387 19.6335L21.7487 6.01377Z" fill="#7C838B" stroke="#7C838B"/>
    <path d="M9.67977 7.12996C9.61977 7.12996 9.55977 7.11994 9.49977 7.10994C9.09977 7.00994 8.84979 6.6099 8.94979 6.1999L9.98976 1.87996C10.0898 1.47996 10.4898 1.22991 10.8998 1.32991C11.2998 1.42991 11.5498 1.82994 11.4498 2.23994L10.4098 6.56001C10.3298 6.90001 10.0198 7.12996 9.67977 7.12996Z" fill="#7C838B"/>
    <path d="M16.3795 7.13999C16.3295 7.13999 16.2694 7.13997 16.2194 7.11997C15.8194 7.02997 15.5595 6.62995 15.6395 6.22995L16.5794 1.88999C16.6694 1.47999 17.0694 1.23003 17.4694 1.31003C17.8694 1.39003 18.1294 1.79992 18.0494 2.19992L17.1094 6.54001C17.0394 6.90001 16.7295 7.13999 16.3795 7.13999Z" fill="#7C838B"/>
    <path d="M15.7002 12.75H7.7002C7.2902 12.75 6.9502 12.41 6.9502 12C6.9502 11.59 7.2902 11.25 7.7002 11.25H15.7002C16.1102 11.25 16.4502 11.59 16.4502 12C16.4502 12.41 16.1102 12.75 15.7002 12.75Z" fill="#7C838B"/>
    <path d="M14.7002 16.75H6.7002C6.2902 16.75 5.9502 16.41 5.9502 16C5.9502 15.59 6.2902 15.25 6.7002 15.25H14.7002C15.1102 15.25 15.4502 15.59 15.4502 16C15.4502 16.41 15.1102 16.75 14.7002 16.75Z" fill="#7C838B"/>
    </svg>
    