<svg width="20" height="20" viewBox="0 0 20 20" fill="none" xmlns="http://www.w3.org/2000/svg">
    <path d="M16.4748 9.37508H13.1082C11.4332 9.37508 10.6248 8.63342 10.6248 7.10008V3.31675C10.6248 1.78341 11.4415 1.04175 13.1082 1.04175H16.4748C18.1498 1.04175 18.9582 1.78341 18.9582 3.31675V7.09175C18.9582 8.63342 18.1415 9.37508 16.4748 9.37508ZM13.1082 2.29175C11.9915 2.29175 11.8748 2.60841 11.8748 3.31675V7.09175C11.8748 7.80841 11.9915 8.11675 13.1082 8.11675H16.4748C17.5915 8.11675 17.7082 7.80008 17.7082 7.09175V3.31675C17.7082 2.60008 17.5915 2.29175 16.4748 2.29175H13.1082Z" fill="#1971F6"/>
    <path d="M16.4748 18.9584H13.1082C11.4332 18.9584 10.6248 18.1417 10.6248 16.4751V13.1084C10.6248 11.4334 11.4415 10.6251 13.1082 10.6251H16.4748C18.1498 10.6251 18.9582 11.4417 18.9582 13.1084V16.4751C18.9582 18.1417 18.1415 18.9584 16.4748 18.9584ZM13.1082 11.8751C12.1248 11.8751 11.8748 12.1251 11.8748 13.1084V16.4751C11.8748 17.4584 12.1248 17.7084 13.1082 17.7084H16.4748C17.4582 17.7084 17.7082 17.4584 17.7082 16.4751V13.1084C17.7082 12.1251 17.4582 11.8751 16.4748 11.8751H13.1082Z" fill="#1971F6"/>
    <path d="M6.8915 9.37508H3.52484C1.84984 9.37508 1.0415 8.63342 1.0415 7.10008V3.31675C1.0415 1.78341 1.85817 1.04175 3.52484 1.04175H6.8915C8.5665 1.04175 9.37484 1.78341 9.37484 3.31675V7.09175C9.37484 8.63342 8.55817 9.37508 6.8915 9.37508ZM3.52484 2.29175C2.40817 2.29175 2.2915 2.60841 2.2915 3.31675V7.09175C2.2915 7.80841 2.40817 8.11675 3.52484 8.11675H6.8915C8.00817 8.11675 8.12484 7.80008 8.12484 7.09175V3.31675C8.12484 2.60008 8.00817 2.29175 6.8915 2.29175H3.52484Z" fill="#1971F6"/>
    <path d="M6.8915 18.9584H3.52484C1.84984 18.9584 1.0415 18.1417 1.0415 16.4751V13.1084C1.0415 11.4334 1.85817 10.6251 3.52484 10.6251H6.8915C8.5665 10.6251 9.37484 11.4417 9.37484 13.1084V16.4751C9.37484 18.1417 8.55817 18.9584 6.8915 18.9584ZM3.52484 11.8751C2.5415 11.8751 2.2915 12.1251 2.2915 13.1084V16.4751C2.2915 17.4584 2.5415 17.7084 3.52484 17.7084H6.8915C7.87484 17.7084 8.12484 17.4584 8.12484 16.4751V13.1084C8.12484 12.1251 7.87484 11.8751 6.8915 11.8751H3.52484Z" fill="#1971F6"/>
    </svg>
    