<svg width="48" height="48" viewBox="0 0 48 48" fill="none" xmlns="http://www.w3.org/2000/svg">
<rect x="0.5" y="0.5" width="47" height="47" rx="7.5" stroke="#FAFAFA"/>
<path fill-rule="evenodd" clip-rule="evenodd" d="M8 10.7475V36.9293C8.10739 37.9529 8.96649 40 11.5438 40H30.5514C35.4912 39.8384 43.889 36.4121 37.9612 24C40.3774 19.8519 42.2782 10.8444 30.5514 8H11.5438C10.3625 8 8 8.54949 8 10.7475ZM30.5514 15.9192H16.3762C14.3144 17.3414 15.5171 19.2054 16.3762 19.9596H25.0746C22.2289 22.7609 16.3762 28.5253 15.7319 29.1717C14.9265 29.9798 14.7654 31.1111 15.893 32.2424C16.7951 33.1475 17.9871 32.7273 18.4703 32.404L27.813 23.0303V31.2727C29.6171 33.8586 31.3568 32.3502 32.0012 31.2727C31.9475 27.4478 31.8723 19.4101 32.0012 17.8586C32.13 16.3071 31.0884 15.9192 30.5514 15.9192Z" fill="url(#paint0_linear_463_1345)"/>
<path d="M11.5438 40C8.96649 40 8.10739 37.9529 8 36.9293V10.7475C8 8.54949 10.3625 8 11.5438 8H30.5514C42.2782 10.8444 40.3774 19.8519 37.9612 24C43.889 36.4121 35.4912 39.8384 30.5514 40M11.5438 40C14.1211 40 25.2894 40 30.5514 40M11.5438 40H30.5514M16.3762 15.9192H30.5514C31.0884 15.9192 32.13 16.3071 32.0011 17.8586C31.8723 19.4101 31.9475 27.4478 32.0011 31.2727C31.3568 32.3502 29.6171 33.8586 27.813 31.2727V23.0303L18.4703 32.404C17.9871 32.7273 16.7951 33.1475 15.893 32.2424C14.7654 31.1111 14.9265 29.9798 15.7319 29.1717C16.3762 28.5253 22.2289 22.7609 25.0746 19.9596H16.3762C15.5171 19.2054 14.3144 17.3414 16.3762 15.9192Z" stroke="white" stroke-width="0.421053"/>
<defs>
<linearGradient id="paint0_linear_463_1345" x1="34.4174" y1="9.77778" x2="9.35159" y2="39.9184" gradientUnits="userSpaceOnUse">
<stop stop-color="#65A2FF"/>
<stop offset="1" stop-color="#1971F6"/>
</linearGradient>
</defs>
</svg>
