<svg width="24" height="24" viewBox="0 0 24 24" fill="none" xmlns="http://www.w3.org/2000/svg">
    <path d="M16.5 8.63005C16.09 8.63005 15.75 8.29005 15.75 7.88005V6.50005C15.75 5.45006 15.3 4.43005 14.52 3.72005C13.73 3.00005 12.71 2.67005 11.63 2.77005C9.83 2.94005 8.25 4.78005 8.25 6.70005V7.67005C8.25 8.08005 7.91 8.42005 7.5 8.42005C7.09 8.42005 6.75 8.08005 6.75 7.67005V6.69005C6.75 4.00005 8.92 1.52005 11.49 1.27005C12.99 1.13005 14.43 1.60005 15.53 2.61005C16.62 3.60005 17.25 5.02005 17.25 6.50005V7.88005C17.25 8.29005 16.91 8.63005 16.5 8.63005Z" fill="#7C838B"/>
    <path d="M3.79717 18.4576L3.79707 18.4577C3.90296 19.4636 4.15477 20.3796 4.8487 21.0556C5.53938 21.7284 6.75942 22.25 8.99982 22.25H14.9998C17.2402 22.25 18.4603 21.7284 19.1509 21.0556C19.8449 20.3796 20.0967 19.4636 20.2026 18.4577L20.2036 18.4481L20.2037 18.4481L20.953 12.4433C21.0612 11.3962 21.061 10.0496 20.178 9.06427L3.79717 18.4576ZM3.79717 18.4576L3.79594 18.4479M3.79717 18.4576L3.79594 18.4479M3.79594 18.4479L3.04667 12.4637C2.93792 11.3915 2.93026 10.0491 3.82051 9.06554L3.82147 9.06448M3.79594 18.4479L3.82147 9.06448M3.82147 9.06448C4.58144 8.22007 5.89586 7.75 7.99982 7.75M3.82147 9.06448L7.99982 7.75M7.99982 7.75H15.9998M7.99982 7.75H15.9998M15.9998 7.75C18.1122 7.75 19.427 8.22933 20.1775 9.06377L15.9998 7.75ZM3.54254 12.4021L3.54244 12.4021L3.54369 12.4121L4.29312 18.3975C4.37936 19.2067 4.54363 20.1056 5.27168 20.7695C5.99312 21.4273 7.16081 21.76 8.99982 21.76H14.9998C16.8381 21.76 18.0053 21.43 18.7267 20.7769C19.4557 20.1168 19.6202 19.2224 19.7065 18.4176L20.456 12.4119L20.456 12.4119L20.457 12.403C20.5919 11.1375 20.4456 10.1281 19.8141 9.41848C19.071 8.57566 17.712 8.25 15.9998 8.25H7.99982C6.2875 8.25 4.9311 8.57577 4.18829 9.40538C3.55247 10.1072 3.40823 11.121 3.54254 12.4021Z" fill="#7C838B" stroke="#7C838B"/>
    <path d="M15.4202 13.1499C14.8602 13.1499 14.4102 12.6999 14.4102 12.1499C14.4102 11.5999 14.8602 11.1499 15.4102 11.1499C15.9602 11.1499 16.4102 11.5999 16.4102 12.1499C16.4102 12.6999 15.9702 13.1499 15.4202 13.1499Z" fill="#7C838B"/>
    <path d="M8.42016 13.1499C7.86016 13.1499 7.41016 12.6999 7.41016 12.1499C7.41016 11.5999 7.86016 11.1499 8.41016 11.1499C8.96016 11.1499 9.41016 11.5999 9.41016 12.1499C9.41016 12.6999 8.97016 13.1499 8.42016 13.1499Z" fill="#7C838B"/>
    </svg>
    